<?xml version="1.0" encoding="utf-8"?>
<!-- Generator: Adobe Illustrator 24.3.0, SVG Export Plug-In . SVG Version: 6.00 Build 0)  -->
<svg version="1.1" id="Layer_1" xmlns="http://www.w3.org/2000/svg" xmlns:xlink="http://www.w3.org/1999/xlink" x="0px" y="0px"
	 viewBox="0 0 205 68" style="enable-background:new 0 0 205 68;" xml:space="preserve">
<style type="text/css">
	.st0{fill:#80BC00;}
	.st1{fill:#FFFFFF;}
</style>
<g id="Layer_2_1_">
	<g id="Layer_1-2">
		<g id="KCB_Logo">
			<polygon class="st0" points="0,0 157.9,0 205,68 0,68 			"/>
			<path class="st1" d="M71.5,49.8c-2,2-5.5,3.3-9.1,3.3c-4.2,0-7.2-0.9-10.1-4.6v3.9h-7.4V0h7.8v18.8c2.6-3.3,5.9-4.2,9.8-4.2
				s7.2,1.3,9.1,3.3c3.9,3.9,4.2,10.1,4.2,15.9S75.3,46.1,71.5,49.8z M60.4,21.4c-6.8,0-7.8,5.9-7.8,12.4s0.9,12.4,7.8,12.4
				s7.8-5.9,7.8-12.4S67.2,21.4,60.4,21.4z"/>
			<path class="st1" d="M107.2,49.8c-2,2-5.2,3.3-9.1,3.3s-7.2-0.9-9.8-4.2v19.1h-7.4V15.3h7.4v3.9c2.9-3.3,5.9-4.6,10.1-4.6
				c3.9,0,7.2,1.3,9.1,3.3c3.9,3.9,4.2,10.1,4.2,15.9C111.5,39.7,110.8,46.1,107.2,49.8z M96.2,21.4c-6.8,0-7.8,5.9-7.8,12.4
				s0.9,12.4,7.8,12.4c6.9,0,7.8-5.9,7.8-12.4C103.7,27.3,103,21.4,96.2,21.4z"/>
			<path class="st1" d="M136.8,24c-1.6-1.6-2.9-2.6-5.5-2.6c-4.2,0-7.4,3.3-7.4,8.5v22.7h-7.4V15.3h7.4v4.2c2-2.6,5.9-4.6,10.1-4.6
				c3.5,0,6.5,0.9,9.1,3.5L136.8,24z"/>
		</g>
	</g>
</g>
</svg>
